<?xml version="1.0" standalone="no"?>
<!DOCTYPE svg PUBLIC "-//W3C//DTD SVG 20010904//EN"
 "http://www.w3.org/TR/2001/REC-SVG-20010904/DTD/svg10.dtd">
<svg version="1.0" xmlns="http://www.w3.org/2000/svg"
 width="512.000000pt" height="512.000000pt" viewBox="0 0 512.000000 512.000000"
 preserveAspectRatio="xMidYMid meet">
<metadata>
Created by potrace 1.14, written by Peter Selinger 2001-2017
</metadata>
<g transform="translate(0.000000,512.000000) scale(0.100000,-0.100000)"
fill="#000000" stroke="none">
<path d="M2378 5115 c-1 -1 -39 -5 -82 -9 -44 -4 -82 -9 -85 -11 -4 -2 -34 -7
-66 -10 -117 -14 -472 -111 -499 -136 -6 -5 -16 -9 -23 -9 -24 0 -259 -115
-375 -184 -389 -230 -719 -574 -938 -976 -106 -195 -218 -491 -244 -643 -3
-15 -7 -35 -10 -45 -3 -9 -7 -34 -11 -56 -3 -21 -7 -41 -9 -45 -4 -6 -12 -72
-26 -201 -8 -84 -5 -454 4 -515 4 -22 13 -80 21 -130 143 -882 745 -1630 1581
-1963 197 -79 418 -137 604 -158 30 -3 76 -10 103 -14 48 -7 472 -5 517 4 14
2 45 7 70 10 25 4 92 16 150 27 58 12 115 23 128 25 38 7 320 103 370 125 481
216 859 531 1135 945 193 291 341 664 392 994 4 25 9 52 10 61 19 102 27 468
13 609 -69 690 -415 1324 -960 1757 -155 123 -369 253 -543 329 -44 20 -89 39
-100 44 -86 38 -365 119 -465 134 -19 3 -46 8 -60 11 -14 3 -45 8 -70 11 -25
3 -56 8 -70 10 -27 6 -456 14 -462 9z m1190 -1189 c38 -20 69 -51 88 -89 19
-36 18 63 10 -1114 l-6 -763 -23 -57 c-85 -210 -289 -356 -493 -354 -242 2
-368 212 -273 454 75 189 283 339 479 346 29 1 26 -55 31 511 2 281 1 308 -16
333 -21 33 -64 57 -101 57 -15 0 -138 -29 -273 -64 -135 -36 -300 -79 -366
-96 -66 -17 -196 -52 -290 -76 -93 -25 -179 -47 -190 -50 -11 -2 -69 -17 -130
-33 -120 -33 -164 -64 -166 -119 -7 -182 -2 -1042 7 -1101 21 -143 -25 -274
-140 -400 -176 -190 -462 -229 -606 -81 -67 68 -91 181 -65 305 8 40 67 155
96 190 110 129 262 209 404 214 19 1 20 7 18 88 -1 49 -5 363 -8 699 -7 569
-6 613 10 645 35 67 70 89 210 128 67 18 485 129 515 136 8 2 110 29 225 60
116 31 219 58 230 61 11 2 177 46 370 98 359 96 396 102 453 72z"/>
</g>
</svg>
